<svg width="822" height="818" xmlns="http://www.w3.org/2000/svg" xmlns:xlink="http://www.w3.org/1999/xlink" xml:space="preserve" overflow="hidden"><g transform="translate(-447 -279)"><g><g><g><path d="M1045.2 605.077C1008.03 468.208 895.59 386.49 744.405 386.49L370.048 386.49 377.434 403.417C409.162 476.14 480.948 523.156 560.31 523.178L662.247 523.178 663.083 523.156C666.955 522.877 681.273 522.008 702.746 522.008 723.397 522.008 744.441 522.821 765.212 524.413L767.252 524.569C846.784 530.827 955.75 551.62 1023.09 615.011L1023.95 615.816C1024.3 616.154 1024.66 616.474 1024.99 616.823L1057.04 648.734ZM1055.45 762.82 1055.37 764.133C1035.15 934.67 914.713 1040.6 741.071 1040.6L502.243 1040.6 502.243 717.733 514.326 717.733C584.248 717.733 641.13 774.616 641.13 844.535L641.13 901.699 746.902 901.699C798.999 901.699 842.865 884.594 873.785 852.222 905.245 819.277 921.871 771.662 921.871 714.528L921.871 712.566C921.871 668.326 912.143 630.182 892.95 599.171L875.034 570.228 907.193 581.388C947.093 595.232 979.462 613.67 1003.39 636.211 1038.35 669.14 1055.87 711.732 1055.45 762.82" fill="#004AAD" transform="matrix(1 0 0 1.00125 211.956 -107.898)"/></g></g></g><g><g><g><path d="M1044.91 604.907C1007.75 468.076 895.338 386.381 744.196 386.381L369.944 386.381 377.328 403.304C409.047 476.006 480.813 523.009 560.153 523.031L662.061 523.031 662.897 523.009C666.767 522.73 681.081 521.861 702.549 521.861 723.194 521.861 744.232 522.675 764.997 524.266L767.037 524.422C846.547 530.677 955.482 551.465 1022.8 614.838L1023.66 615.643C1024.01 615.981 1024.37 616.301 1024.7 616.649L1056.74 648.552ZM1055.16 762.606 1055.07 763.919C1034.86 934.408 914.456 1040.31 740.863 1040.31L502.102 1040.31 502.102 717.532 514.181 717.532C584.083 717.532 640.95 774.398 640.95 844.298L640.95 901.446 746.692 901.446C798.775 901.446 842.629 884.345 873.539 851.983 904.991 819.047 921.612 771.445 921.612 714.327L921.612 712.365C921.612 668.138 911.887 630.005 892.699 599.002L874.788 570.067 906.938 581.225C946.827 595.065 979.187 613.498 1003.1 636.032 1038.06 668.952 1055.57 711.532 1055.16 762.606" fill="#38B6FF" transform="matrix(-1.00028 0 0 -1 1504.04 1483.31)"/></g></g></g></g></svg>